<?xml version="1.0" encoding="UTF-8"?>
<svg xmlns="http://www.w3.org/2000/svg" xmlns:xlink="http://www.w3.org/1999/xlink" viewBox="0 0 32 32" width="32px" height="32px">
<g id="surface4519981">
<path style="fill-rule:nonzero;fill:rgb(81.960785%,92.54902%,94.901961%);fill-opacity:1;stroke-width:1;stroke-linecap:butt;stroke-linejoin:round;stroke:rgb(81.960785%,92.54902%,94.901961%);stroke-opacity:1;stroke-miterlimit:10;" d="M 131.688681 26.877196 C 139.039426 26.877196 145.122801 32.960571 145.122801 40.311316 L 145.122801 131.688681 C 145.122801 139.039426 139.039426 145.122801 131.688681 145.122801 L 40.311316 145.122801 C 32.960571 145.122801 26.877196 139.039426 26.877196 131.688681 L 26.877196 40.311316 C 26.877196 32.960571 32.960571 26.877196 40.311316 26.877196 Z M 37.628717 40.311316 L 37.628717 131.688681 C 37.628717 133.230647 38.76935 134.37128 40.311316 134.37128 L 131.688681 134.37128 C 133.230647 134.37128 134.37128 133.230647 134.37128 131.688681 L 134.37128 40.311316 C 134.37128 38.76935 133.230647 37.628717 131.688681 37.628717 L 40.311316 37.628717 C 38.76935 37.628717 37.628717 38.76935 37.628717 40.311316 Z M 65.34187 56.111194 C 65.34187 61.201796 61.201796 65.34187 56.111194 65.34187 C 50.999469 65.34187 46.859394 61.201796 46.859394 56.111194 C 46.859394 50.999469 50.999469 46.859394 56.111194 46.859394 C 61.201796 46.859394 65.34187 50.999469 65.34187 56.111194 Z M 123.619759 95.568641 L 123.619759 123.619759 L 107.841005 123.619759 L 107.841005 98.758188 C 107.841005 92.843796 107.735391 85.324068 99.603101 85.324068 C 91.344075 85.324068 90.034459 91.766531 90.034459 98.420223 L 90.034459 123.619759 L 74.234582 123.619759 L 74.234582 72.565878 L 89.358529 72.565878 L 89.358529 79.620904 L 89.696494 79.620904 C 91.808777 75.607566 96.941625 71.383 104.651458 71.383 C 120.704809 71.383 123.619759 81.838801 123.619759 95.568641 Z M 64.327975 72.565878 L 64.327975 123.619759 L 48.380238 123.619759 L 48.380238 72.565878 Z M 64.327975 72.565878 " transform="matrix(0.18493,0,0,0.18493,0.096,0.096)"/>
<path style=" stroke:none;fill-rule:nonzero;fill:rgb(81.960785%,92.54902%,94.901961%);fill-opacity:1;" d="M 7.550781 5.066406 C 6.191406 5.066406 5.066406 6.191406 5.066406 7.550781 L 5.066406 24.449219 C 5.066406 25.808594 6.191406 26.933594 7.550781 26.933594 L 24.449219 26.933594 C 25.808594 26.933594 26.933594 25.808594 26.933594 24.449219 L 26.933594 7.550781 C 26.933594 6.191406 25.808594 5.066406 24.449219 5.066406 Z M 7.550781 7.054688 L 24.449219 7.054688 C 24.734375 7.054688 24.945312 7.265625 24.945312 7.550781 L 24.945312 24.449219 C 24.945312 24.734375 24.734375 24.945312 24.449219 24.945312 L 7.550781 24.945312 C 7.265625 24.945312 7.054688 24.734375 7.054688 24.449219 L 7.054688 7.550781 C 7.054688 7.265625 7.265625 7.054688 7.550781 7.054688 Z M 10.472656 8.761719 C 9.527344 8.761719 8.761719 9.527344 8.761719 10.472656 C 8.761719 11.414062 9.527344 12.179688 10.472656 12.179688 C 11.414062 12.179688 12.179688 11.414062 12.179688 10.472656 C 12.179688 9.527344 11.414062 8.761719 10.472656 8.761719 Z M 19.449219 13.296875 C 18.023438 13.296875 17.074219 14.078125 16.683594 14.820312 L 16.621094 14.820312 L 16.621094 13.515625 L 13.824219 13.515625 L 13.824219 22.957031 L 16.746094 22.957031 L 16.746094 18.296875 C 16.746094 17.066406 16.988281 15.875 18.515625 15.875 C 20.019531 15.875 20.039062 17.265625 20.039062 18.359375 L 20.039062 22.957031 L 22.957031 22.957031 L 22.957031 17.769531 C 22.957031 15.230469 22.417969 13.296875 19.449219 13.296875 Z M 9.042969 13.515625 L 9.042969 22.957031 L 11.992188 22.957031 L 11.992188 13.515625 Z M 9.042969 13.515625 "/>
</g>
</svg>
